<?xml version="1.0" encoding="UTF-8"?>
<svg width="100px" height="100px" viewBox="0 0 100 100" version="1.1" xmlns="http://www.w3.org/2000/svg" xmlns:xlink="http://www.w3.org/1999/xlink">
  <defs>
    <linearGradient x1="0%" y1="0%" x2="100%" y2="100%" id="linearGradient">
      <stop stop-color="#4338ca" offset="0%"></stop>
      <stop stop-color="#10b981" offset="100%"></stop>
    </linearGradient>
  </defs>
  <g stroke="none" stroke-width="1" fill="none" fill-rule="evenodd">
    <rect fill="#1e1b4b" x="0" y="0" width="100" height="100" rx="20"></rect>
    <path d="M70,60 C70,69.35 62.35,77 53,77 L47,77 C37.65,77 30,69.35 30,60 L30,40 C30,30.65 37.65,23 47,23 L53,23 C62.35,23 70,30.65 70,40 L70,60 Z" fill="#4338ca" fill-rule="nonzero"></path>
    <path d="M65,65 C65,69.97 60.97,74 56,74 L44,74 C39.03,74 35,69.97 35,65 L35,35 C35,30.03 39.03,26 44,26 L56,26 C60.97,26 65,30.03 65,35 L65,65 Z" fill="#10b981" fill-rule="nonzero"></path>
    <path d="M77,48.5 C77,64.79 63.79,78 47.5,78 C31.21,78 18,64.79 18,48.5 C18,32.21 31.21,19 47.5,19 C63.79,19 77,32.21 77,48.5 Z" stroke="url(#linearGradient)" stroke-width="4"></path>
    <circle cx="35" cy="40" r="3" fill="#FFFFFF"></circle>
    <circle cx="65" cy="40" r="3" fill="#FFFFFF"></circle>
    <path d="M35,60 C35,60 40,65 50,65 C60,65 65,60 65,60" stroke="#FFFFFF" stroke-width="3" stroke-linecap="round"></path>
    <path d="M30,45 C30,45 35,42 40,45 C45,48 50,45 55,45 C60,45 65,48 70,45" stroke="#4338ca" stroke-width="2" stroke-linecap="round"></path>
    <path d="M25,55 C25,55 35,58 45,55 C55,52 65,58 75,55" stroke="#10b981" stroke-width="2" stroke-linecap="round"></path>
  </g>
</svg>
